<?xml version="1.0" encoding="UTF-8" standalone="no"?>
<!DOCTYPE svg PUBLIC "-//W3C//DTD SVG 1.1//EN"
 "http://www.w3.org/Graphics/SVG/1.1/DTD/svg11.dtd">
<!-- Generated by graphviz version 2.47.0 (20210316.0004)
 -->
<!-- Title: dependencies Pages: 1 -->
<svg width="4572pt" height="284pt"
 viewBox="0.00 0.00 4572.00 284.00" xmlns="http://www.w3.org/2000/svg" xmlns:xlink="http://www.w3.org/1999/xlink">
<g id="graph0" class="graph" transform="scale(1 1) rotate(0) translate(4 280)">
<title>dependencies</title>
<polygon fill="white" stroke="transparent" points="-4,4 -4,-280 4568,-280 4568,4 -4,4"/>
<text text-anchor="start" x="2261.01" y="-42.4" font-family="Times-12" font-weight="bold" font-size="14.00">Legend</text>
<polygon fill="#ffffb3" stroke="transparent" points="2048,-10 2048,-30 2068,-30 2068,-10 2048,-10"/>
<text text-anchor="start" x="2071.63" y="-15.4" font-family="Times-12" font-size="14.00"> &#160;Declarations</text>
<polygon fill="#8dd3c7" stroke="transparent" points="2161,-10 2161,-30 2181,-30 2181,-10 2161,-10"/>
<text text-anchor="start" x="2184.73" y="-15.4" font-family="Times-12" font-size="14.00"> &#160;Module</text>
<polygon fill="#80b1d3" stroke="transparent" points="2247,-10 2247,-30 2267,-30 2267,-10 2247,-10"/>
<text text-anchor="start" x="2270.78" y="-15.4" font-family="Times-12" font-size="14.00"> &#160;Bootstrap</text>
<polygon fill="#fdb462" stroke="transparent" points="2344,-10 2344,-30 2364,-30 2364,-10 2344,-10"/>
<text text-anchor="start" x="2367.67" y="-15.4" font-family="Times-12" font-size="14.00"> &#160;Providers</text>
<polygon fill="#fb8072" stroke="transparent" points="2440,-10 2440,-30 2460,-30 2460,-10 2440,-10"/>
<text text-anchor="start" x="2463.73" y="-15.4" font-family="Times-12" font-size="14.00"> &#160;Exports</text>
<g id="clust1" class="cluster">
<title>cluster_AppModule</title>
<polygon fill="none" stroke="black" stroke-dasharray="1,5" points="8,-70 8,-268 4556,-268 4556,-70 8,-70"/>
</g>
<g id="clust24" class="cluster">
<title>cluster_AppModule_imports</title>
<polygon fill="none" stroke="black" points="3395,-78 3395,-130 4548,-130 4548,-78 3395,-78"/>
</g>
<g id="clust26" class="cluster">
<title>cluster_AppModule_bootstrap</title>
<polygon fill="none" stroke="black" points="2061,-208 2061,-260 2185,-260 2185,-208 2061,-208"/>
</g>
<g id="clust2" class="cluster">
<title>cluster_AppModule_declarations</title>
<polygon fill="none" stroke="black" points="16,-78 16,-130 3387,-130 3387,-78 16,-78"/>
</g>
<!-- AddProductosAdminComponent -->
<g id="node1" class="node">
<title>AddProductosAdminComponent</title>
<polygon fill="#ffffb3" stroke="black" points="3379.32,-122 3178.68,-122 3178.68,-86 3379.32,-86 3379.32,-122"/>
<text text-anchor="middle" x="3279" y="-99.8" font-family="Times,serif" font-size="14.00">AddProductosAdminComponent</text>
</g>
<!-- AppModule -->
<g id="node22" class="node">
<title>AppModule</title>
<polygon fill="#8dd3c7" stroke="black" points="2164.66,-187 2161.66,-191 2140.66,-191 2137.66,-187 2081.34,-187 2081.34,-151 2164.66,-151 2164.66,-187"/>
<text text-anchor="middle" x="2123" y="-164.8" font-family="Times,serif" font-size="14.00">AppModule</text>
</g>
<!-- AddProductosAdminComponent&#45;&gt;AppModule -->
<g id="edge1" class="edge">
<title>AddProductosAdminComponent&#45;&gt;AppModule</title>
<path fill="none" stroke="black" d="M3279,-122.31C3279,-142.15 3279,-171 3279,-171 3279,-171 2174.83,-171 2174.83,-171"/>
<polygon fill="black" stroke="black" points="2174.83,-167.5 2164.83,-171 2174.83,-174.5 2174.83,-167.5"/>
</g>
<!-- AppComponent -->
<g id="node2" class="node">
<title>AppComponent</title>
<polygon fill="#ffffb3" stroke="black" points="3160.94,-122 3055.06,-122 3055.06,-86 3160.94,-86 3160.94,-122"/>
<text text-anchor="middle" x="3108" y="-99.8" font-family="Times,serif" font-size="14.00">AppComponent</text>
</g>
<!-- AppComponent&#45;&gt;AppModule -->
<g id="edge2" class="edge">
<title>AppComponent&#45;&gt;AppModule</title>
<path fill="none" stroke="black" d="M3108,-122.17C3108,-141.09 3108,-168 3108,-168 3108,-168 2174.7,-168 2174.7,-168"/>
<polygon fill="black" stroke="black" points="2174.7,-164.5 2164.7,-168 2174.7,-171.5 2174.7,-164.5"/>
</g>
<!-- CabeceraComponent -->
<g id="node3" class="node">
<title>CabeceraComponent</title>
<polygon fill="#ffffb3" stroke="black" points="3037.9,-122 2904.1,-122 2904.1,-86 3037.9,-86 3037.9,-122"/>
<text text-anchor="middle" x="2971" y="-99.8" font-family="Times,serif" font-size="14.00">CabeceraComponent</text>
</g>
<!-- CabeceraComponent&#45;&gt;AppModule -->
<g id="edge3" class="edge">
<title>CabeceraComponent&#45;&gt;AppModule</title>
<path fill="none" stroke="black" d="M2971,-122.3C2971,-140.27 2971,-165 2971,-165 2971,-165 2174.76,-165 2174.76,-165"/>
<polygon fill="black" stroke="black" points="2174.76,-161.5 2164.76,-165 2174.76,-168.5 2174.76,-161.5"/>
</g>
<!-- CajonComponent -->
<g id="node4" class="node">
<title>CajonComponent</title>
<polygon fill="#ffffb3" stroke="black" points="2886.27,-122 2771.73,-122 2771.73,-86 2886.27,-86 2886.27,-122"/>
<text text-anchor="middle" x="2829" y="-99.8" font-family="Times,serif" font-size="14.00">CajonComponent</text>
</g>
<!-- CajonComponent&#45;&gt;AppModule -->
<g id="edge4" class="edge">
<title>CajonComponent&#45;&gt;AppModule</title>
<path fill="none" stroke="black" d="M2829,-122.02C2829,-139.37 2829,-163 2829,-163 2829,-163 2174.79,-163 2174.79,-163"/>
<polygon fill="black" stroke="black" points="2174.79,-159.5 2164.79,-163 2174.79,-166.5 2174.79,-159.5"/>
</g>
<!-- CajonItemAddComponent -->
<g id="node5" class="node">
<title>CajonItemAddComponent</title>
<polygon fill="#ffffb3" stroke="black" points="2753.04,-122 2588.96,-122 2588.96,-86 2753.04,-86 2753.04,-122"/>
<text text-anchor="middle" x="2671" y="-99.8" font-family="Times,serif" font-size="14.00">CajonItemAddComponent</text>
</g>
<!-- CajonItemAddComponent&#45;&gt;AppModule -->
<g id="edge5" class="edge">
<title>CajonItemAddComponent&#45;&gt;AppModule</title>
<path fill="none" stroke="black" d="M2671,-122.03C2671,-138.4 2671,-160 2671,-160 2671,-160 2175.09,-160 2175.09,-160"/>
<polygon fill="black" stroke="black" points="2175.09,-156.5 2165.09,-160 2175.09,-163.5 2175.09,-156.5"/>
</g>
<!-- CajonItemComponent -->
<g id="node6" class="node">
<title>CajonItemComponent</title>
<polygon fill="#ffffb3" stroke="black" points="2571.43,-122 2430.57,-122 2430.57,-86 2571.43,-86 2571.43,-122"/>
<text text-anchor="middle" x="2501" y="-99.8" font-family="Times,serif" font-size="14.00">CajonItemComponent</text>
</g>
<!-- CajonItemComponent&#45;&gt;AppModule -->
<g id="edge6" class="edge">
<title>CajonItemComponent&#45;&gt;AppModule</title>
<path fill="none" stroke="black" d="M2501,-122.24C2501,-137.57 2501,-157 2501,-157 2501,-157 2174.9,-157 2174.9,-157"/>
<polygon fill="black" stroke="black" points="2174.9,-153.5 2164.9,-157 2174.9,-160.5 2174.9,-153.5"/>
</g>
<!-- CarouselComponent -->
<g id="node7" class="node">
<title>CarouselComponent</title>
<polygon fill="#ffffb3" stroke="black" points="2412.59,-122 2281.41,-122 2281.41,-86 2412.59,-86 2412.59,-122"/>
<text text-anchor="middle" x="2347" y="-99.8" font-family="Times,serif" font-size="14.00">CarouselComponent</text>
</g>
<!-- CarouselComponent&#45;&gt;AppModule -->
<g id="edge7" class="edge">
<title>CarouselComponent&#45;&gt;AppModule</title>
<path fill="none" stroke="black" d="M2347,-122.05C2347,-136.37 2347,-154 2347,-154 2347,-154 2174.87,-154 2174.87,-154"/>
<polygon fill="black" stroke="black" points="2174.87,-150.5 2164.87,-154 2174.87,-157.5 2174.87,-150.5"/>
</g>
<!-- FamiliaComponent -->
<g id="node8" class="node">
<title>FamiliaComponent</title>
<polygon fill="#ffffb3" stroke="black" points="2263.11,-122 2138.89,-122 2138.89,-86 2263.11,-86 2263.11,-122"/>
<text text-anchor="middle" x="2201" y="-99.8" font-family="Times,serif" font-size="14.00">FamiliaComponent</text>
</g>
<!-- FamiliaComponent&#45;&gt;AppModule -->
<g id="edge8" class="edge">
<title>FamiliaComponent&#45;&gt;AppModule</title>
<path fill="none" stroke="black" d="M2151.89,-122.11C2151.89,-122.11 2151.89,-140.99 2151.89,-140.99"/>
<polygon fill="black" stroke="black" points="2148.39,-140.99 2151.89,-150.99 2155.39,-140.99 2148.39,-140.99"/>
</g>
<!-- InicioSesionComponent -->
<g id="node9" class="node">
<title>InicioSesionComponent</title>
<polygon fill="#ffffb3" stroke="black" points="2120.82,-122 1969.18,-122 1969.18,-86 2120.82,-86 2120.82,-122"/>
<text text-anchor="middle" x="2045" y="-99.8" font-family="Times,serif" font-size="14.00">InicioSesionComponent</text>
</g>
<!-- InicioSesionComponent&#45;&gt;AppModule -->
<g id="edge9" class="edge">
<title>InicioSesionComponent&#45;&gt;AppModule</title>
<path fill="none" stroke="black" d="M2100.92,-122.11C2100.92,-122.11 2100.92,-140.99 2100.92,-140.99"/>
<polygon fill="black" stroke="black" points="2097.42,-140.99 2100.92,-150.99 2104.42,-140.99 2097.42,-140.99"/>
</g>
<!-- LandingPageComponent -->
<g id="node10" class="node">
<title>LandingPageComponent</title>
<polygon fill="#ffffb3" stroke="black" points="1951.7,-122 1796.3,-122 1796.3,-86 1951.7,-86 1951.7,-122"/>
<text text-anchor="middle" x="1874" y="-99.8" font-family="Times,serif" font-size="14.00">LandingPageComponent</text>
</g>
<!-- LandingPageComponent&#45;&gt;AppModule -->
<g id="edge10" class="edge">
<title>LandingPageComponent&#45;&gt;AppModule</title>
<path fill="none" stroke="black" d="M1874,-122.05C1874,-136.37 1874,-154 1874,-154 1874,-154 2071.32,-154 2071.32,-154"/>
<polygon fill="black" stroke="black" points="2071.32,-157.5 2081.32,-154 2071.32,-150.5 2071.32,-157.5"/>
</g>
<!-- NeveraComponent -->
<g id="node11" class="node">
<title>NeveraComponent</title>
<polygon fill="#ffffb3" stroke="black" points="1778.74,-122 1657.26,-122 1657.26,-86 1778.74,-86 1778.74,-122"/>
<text text-anchor="middle" x="1718" y="-99.8" font-family="Times,serif" font-size="14.00">NeveraComponent</text>
</g>
<!-- NeveraComponent&#45;&gt;AppModule -->
<g id="edge11" class="edge">
<title>NeveraComponent&#45;&gt;AppModule</title>
<path fill="none" stroke="black" d="M1718,-122.24C1718,-137.57 1718,-157 1718,-157 1718,-157 2071.18,-157 2071.18,-157"/>
<polygon fill="black" stroke="black" points="2071.18,-160.5 2081.18,-157 2071.18,-153.5 2071.18,-160.5"/>
</g>
<!-- NeveraItemComponent -->
<g id="node12" class="node">
<title>NeveraItemComponent</title>
<polygon fill="#ffffb3" stroke="black" points="1638.9,-122 1491.1,-122 1491.1,-86 1638.9,-86 1638.9,-122"/>
<text text-anchor="middle" x="1565" y="-99.8" font-family="Times,serif" font-size="14.00">NeveraItemComponent</text>
</g>
<!-- NeveraItemComponent&#45;&gt;AppModule -->
<g id="edge12" class="edge">
<title>NeveraItemComponent&#45;&gt;AppModule</title>
<path fill="none" stroke="black" d="M1565,-122.03C1565,-138.4 1565,-160 1565,-160 1565,-160 2071.06,-160 2071.06,-160"/>
<polygon fill="black" stroke="black" points="2071.06,-163.5 2081.06,-160 2071.06,-156.5 2071.06,-163.5"/>
</g>
<!-- NeverasComponent -->
<g id="node13" class="node">
<title>NeverasComponent</title>
<polygon fill="#ffffb3" stroke="black" points="1473.69,-122 1346.31,-122 1346.31,-86 1473.69,-86 1473.69,-122"/>
<text text-anchor="middle" x="1410" y="-99.8" font-family="Times,serif" font-size="14.00">NeverasComponent</text>
</g>
<!-- NeverasComponent&#45;&gt;AppModule -->
<g id="edge13" class="edge">
<title>NeverasComponent&#45;&gt;AppModule</title>
<path fill="none" stroke="black" d="M1410,-122.02C1410,-139.37 1410,-163 1410,-163 1410,-163 2071.32,-163 2071.32,-163"/>
<polygon fill="black" stroke="black" points="2071.32,-166.5 2081.32,-163 2071.32,-159.5 2071.32,-166.5"/>
</g>
<!-- NumerosdecimalesDirective -->
<g id="node14" class="node">
<title>NumerosdecimalesDirective</title>
<polygon fill="#ffffb3" stroke="black" points="1328.88,-122 1153.12,-122 1153.12,-86 1328.88,-86 1328.88,-122"/>
<text text-anchor="middle" x="1241" y="-99.8" font-family="Times,serif" font-size="14.00">NumerosdecimalesDirective</text>
</g>
<!-- NumerosdecimalesDirective&#45;&gt;AppModule -->
<g id="edge14" class="edge">
<title>NumerosdecimalesDirective&#45;&gt;AppModule</title>
<path fill="none" stroke="black" d="M1241,-122.3C1241,-140.27 1241,-165 1241,-165 1241,-165 2071.05,-165 2071.05,-165"/>
<polygon fill="black" stroke="black" points="2071.05,-168.5 2081.05,-165 2071.05,-161.5 2071.05,-168.5"/>
</g>
<!-- PieComponent -->
<g id="node15" class="node">
<title>PieComponent</title>
<polygon fill="#ffffb3" stroke="black" points="1135.72,-122 1036.28,-122 1036.28,-86 1135.72,-86 1135.72,-122"/>
<text text-anchor="middle" x="1086" y="-99.8" font-family="Times,serif" font-size="14.00">PieComponent</text>
</g>
<!-- PieComponent&#45;&gt;AppModule -->
<g id="edge15" class="edge">
<title>PieComponent&#45;&gt;AppModule</title>
<path fill="none" stroke="black" d="M1086,-122.17C1086,-141.09 1086,-168 1086,-168 1086,-168 2071.06,-168 2071.06,-168"/>
<polygon fill="black" stroke="black" points="2071.06,-171.5 2081.06,-168 2071.06,-164.5 2071.06,-171.5"/>
</g>
<!-- ProductoCajonComponent -->
<g id="node16" class="node">
<title>ProductoCajonComponent</title>
<polygon fill="#ffffb3" stroke="black" points="1018.82,-122 853.18,-122 853.18,-86 1018.82,-86 1018.82,-122"/>
<text text-anchor="middle" x="936" y="-99.8" font-family="Times,serif" font-size="14.00">ProductoCajonComponent</text>
</g>
<!-- ProductoCajonComponent&#45;&gt;AppModule -->
<g id="edge16" class="edge">
<title>ProductoCajonComponent&#45;&gt;AppModule</title>
<path fill="none" stroke="black" d="M936,-122.31C936,-142.15 936,-171 936,-171 936,-171 2071.1,-171 2071.1,-171"/>
<polygon fill="black" stroke="black" points="2071.1,-174.5 2081.1,-171 2071.1,-167.5 2071.1,-174.5"/>
</g>
<!-- ProductoItemComponent -->
<g id="node17" class="node">
<title>ProductoItemComponent</title>
<polygon fill="#ffffb3" stroke="black" points="835.54,-122 678.46,-122 678.46,-86 835.54,-86 835.54,-122"/>
<text text-anchor="middle" x="757" y="-99.8" font-family="Times,serif" font-size="14.00">ProductoItemComponent</text>
</g>
<!-- ProductoItemComponent&#45;&gt;AppModule -->
<g id="edge17" class="edge">
<title>ProductoItemComponent&#45;&gt;AppModule</title>
<path fill="none" stroke="black" d="M757,-122.03C757,-142.77 757,-174 757,-174 757,-174 2071,-174 2071,-174"/>
<polygon fill="black" stroke="black" points="2071,-177.5 2081,-174 2071,-170.5 2071,-177.5"/>
</g>
<!-- ProductosFamComponent -->
<g id="node18" class="node">
<title>ProductosFamComponent</title>
<polygon fill="#ffffb3" stroke="black" points="660.21,-122 497.79,-122 497.79,-86 660.21,-86 660.21,-122"/>
<text text-anchor="middle" x="579" y="-99.8" font-family="Times,serif" font-size="14.00">ProductosFamComponent</text>
</g>
<!-- ProductosFamComponent&#45;&gt;AppModule -->
<g id="edge18" class="edge">
<title>ProductosFamComponent&#45;&gt;AppModule</title>
<path fill="none" stroke="black" d="M579,-122.17C579,-143.5 579,-176 579,-176 579,-176 2071.3,-176 2071.3,-176"/>
<polygon fill="black" stroke="black" points="2071.3,-179.5 2081.3,-176 2071.3,-172.5 2071.3,-179.5"/>
</g>
<!-- PruebasComponent -->
<g id="node19" class="node">
<title>PruebasComponent</title>
<polygon fill="#ffffb3" stroke="black" points="479.65,-122 354.35,-122 354.35,-86 479.65,-86 479.65,-122"/>
<text text-anchor="middle" x="417" y="-99.8" font-family="Times,serif" font-size="14.00">PruebasComponent</text>
</g>
<!-- PruebasComponent&#45;&gt;AppModule -->
<g id="edge19" class="edge">
<title>PruebasComponent&#45;&gt;AppModule</title>
<path fill="none" stroke="black" d="M417,-122.16C417,-144.35 417,-179 417,-179 417,-179 2071.25,-179 2071.25,-179"/>
<polygon fill="black" stroke="black" points="2071.25,-182.5 2081.25,-179 2071.25,-175.5 2071.25,-182.5"/>
</g>
<!-- RegistroComponent -->
<g id="node20" class="node">
<title>RegistroComponent</title>
<polygon fill="#ffffb3" stroke="black" points="336.27,-122 207.73,-122 207.73,-86 336.27,-86 336.27,-122"/>
<text text-anchor="middle" x="272" y="-99.8" font-family="Times,serif" font-size="14.00">RegistroComponent</text>
</g>
<!-- RegistroComponent&#45;&gt;AppModule -->
<g id="edge20" class="edge">
<title>RegistroComponent&#45;&gt;AppModule</title>
<path fill="none" stroke="black" d="M272,-122.09C272,-145.13 272,-182 272,-182 272,-182 2071.3,-182 2071.3,-182"/>
<polygon fill="black" stroke="black" points="2071.3,-185.5 2081.3,-182 2071.3,-178.5 2071.3,-185.5"/>
</g>
<!-- SesionRegistroComponent -->
<g id="node21" class="node">
<title>SesionRegistroComponent</title>
<polygon fill="#ffffb3" stroke="black" points="190.1,-122 23.9,-122 23.9,-86 190.1,-86 190.1,-122"/>
<text text-anchor="middle" x="107" y="-99.8" font-family="Times,serif" font-size="14.00">SesionRegistroComponent</text>
</g>
<!-- SesionRegistroComponent&#45;&gt;AppModule -->
<g id="edge21" class="edge">
<title>SesionRegistroComponent&#45;&gt;AppModule</title>
<path fill="none" stroke="black" d="M107,-122.38C107,-146.28 107,-185 107,-185 107,-185 2070.89,-185 2070.89,-185"/>
<polygon fill="black" stroke="black" points="2070.89,-188.5 2080.89,-185 2070.89,-181.5 2070.89,-188.5"/>
</g>
<!-- AppComponent  -->
<g id="node28" class="node">
<title>AppComponent </title>
<polygon fill="#80b1d3" stroke="black" points="2177.44,-252 2068.56,-252 2068.56,-216 2177.44,-216 2177.44,-252"/>
<text text-anchor="middle" x="2123" y="-229.8" font-family="Times,serif" font-size="14.00">AppComponent </text>
</g>
<!-- AppModule&#45;&gt;AppComponent  -->
<g id="edge27" class="edge">
<title>AppModule&#45;&gt;AppComponent </title>
<path fill="none" stroke="black" stroke-dasharray="1,5" d="M2123,-187.11C2123,-187.11 2123,-205.99 2123,-205.99"/>
<polygon fill="black" stroke="black" points="2119.5,-205.99 2123,-215.99 2126.5,-205.99 2119.5,-205.99"/>
</g>
<!-- AppRoutingModule -->
<g id="node23" class="node">
<title>AppRoutingModule</title>
<polygon fill="#8dd3c7" stroke="black" points="4540.27,-122 4537.27,-126 4516.27,-126 4513.27,-122 4411.73,-122 4411.73,-86 4540.27,-86 4540.27,-122"/>
<text text-anchor="middle" x="4476" y="-99.8" font-family="Times,serif" font-size="14.00">AppRoutingModule</text>
</g>
<!-- AppRoutingModule&#45;&gt;AppModule -->
<g id="edge22" class="edge">
<title>AppRoutingModule&#45;&gt;AppModule</title>
<path fill="none" stroke="black" d="M4476,-122.38C4476,-146.28 4476,-185 4476,-185 4476,-185 2174.84,-185 2174.84,-185"/>
<polygon fill="black" stroke="black" points="2174.84,-181.5 2164.84,-185 2174.84,-188.5 2174.84,-181.5"/>
</g>
<!-- provideAuth(() =&gt; getAuth()) -->
<g id="node24" class="node">
<title>provideAuth(() =&gt; getAuth())</title>
<polygon fill="#8dd3c7" stroke="black" points="4393.12,-122 4390.12,-126 4369.12,-126 4366.12,-122 4210.88,-122 4210.88,-86 4393.12,-86 4393.12,-122"/>
<text text-anchor="middle" x="4302" y="-99.8" font-family="Times,serif" font-size="14.00">provideAuth(() =&gt; getAuth())</text>
</g>
<!-- provideAuth(() =&gt; getAuth())&#45;&gt;AppModule -->
<g id="edge23" class="edge">
<title>provideAuth(() =&gt; getAuth())&#45;&gt;AppModule</title>
<path fill="none" stroke="black" d="M4302,-122.09C4302,-145.13 4302,-182 4302,-182 4302,-182 2175.06,-182 2175.06,-182"/>
<polygon fill="black" stroke="black" points="2175.06,-178.5 2165.06,-182 2175.06,-185.5 2175.06,-178.5"/>
</g>
<!-- provideFirebaseApp(() =&gt; initializeApp(environment -->
<g id="node25" class="node">
<title>provideFirebaseApp(() =&gt; initializeApp(environment</title>
<polygon fill="#8dd3c7" stroke="black" points="4192.58,-122 4189.58,-126 4168.58,-126 4165.58,-122 3877.42,-122 3877.42,-86 4192.58,-86 4192.58,-122"/>
<text text-anchor="middle" x="4035" y="-99.8" font-family="Times,serif" font-size="14.00">provideFirebaseApp(() =&gt; initializeApp(environment</text>
</g>
<!-- provideFirebaseApp(() =&gt; initializeApp(environment&#45;&gt;AppModule -->
<g id="edge24" class="edge">
<title>provideFirebaseApp(() =&gt; initializeApp(environment&#45;&gt;AppModule</title>
<path fill="none" stroke="black" d="M4035,-122.16C4035,-144.35 4035,-179 4035,-179 4035,-179 2174.71,-179 2174.71,-179"/>
<polygon fill="black" stroke="black" points="2174.71,-175.5 2164.71,-179 2174.71,-182.5 2174.71,-175.5"/>
</g>
<!-- provideFirestore(() =&gt; getFirestore()) -->
<g id="node26" class="node">
<title>provideFirestore(() =&gt; getFirestore())</title>
<polygon fill="#8dd3c7" stroke="black" points="3859.14,-122 3856.14,-126 3835.14,-126 3832.14,-122 3632.86,-122 3632.86,-86 3859.14,-86 3859.14,-122"/>
<text text-anchor="middle" x="3746" y="-99.8" font-family="Times,serif" font-size="14.00">provideFirestore(() =&gt; getFirestore())</text>
</g>
<!-- provideFirestore(() =&gt; getFirestore())&#45;&gt;AppModule -->
<g id="edge25" class="edge">
<title>provideFirestore(() =&gt; getFirestore())&#45;&gt;AppModule</title>
<path fill="none" stroke="black" d="M3746,-122.17C3746,-143.5 3746,-176 3746,-176 3746,-176 2174.75,-176 2174.75,-176"/>
<polygon fill="black" stroke="black" points="2174.75,-172.5 2164.75,-176 2174.75,-179.5 2174.75,-172.5"/>
</g>
<!-- provideStorage(() =&gt; getStorage()) -->
<g id="node27" class="node">
<title>provideStorage(() =&gt; getStorage())</title>
<polygon fill="#8dd3c7" stroke="black" points="3615.15,-122 3612.15,-126 3591.15,-126 3588.15,-122 3402.85,-122 3402.85,-86 3615.15,-86 3615.15,-122"/>
<text text-anchor="middle" x="3509" y="-99.8" font-family="Times,serif" font-size="14.00">provideStorage(() =&gt; getStorage())</text>
</g>
<!-- provideStorage(() =&gt; getStorage())&#45;&gt;AppModule -->
<g id="edge26" class="edge">
<title>provideStorage(() =&gt; getStorage())&#45;&gt;AppModule</title>
<path fill="none" stroke="black" d="M3509,-122.03C3509,-142.77 3509,-174 3509,-174 3509,-174 2174.86,-174 2174.86,-174"/>
<polygon fill="black" stroke="black" points="2174.86,-170.5 2164.86,-174 2174.86,-177.5 2174.86,-170.5"/>
</g>
</g>
</svg>
