<?xml version="1.0" encoding="UTF-8" standalone="no"?>
<!DOCTYPE svg PUBLIC "-//W3C//DTD SVG 1.1//EN"
 "http://www.w3.org/Graphics/SVG/1.1/DTD/svg11.dtd">
<!-- Generated by graphviz version 2.47.0 (20210316.0004)
 -->
<!-- Title: dependencies Pages: 1 -->
<svg width="4572pt" height="284pt"
 viewBox="0.00 0.00 4572.00 284.00" xmlns="http://www.w3.org/2000/svg" xmlns:xlink="http://www.w3.org/1999/xlink">
<g id="graph0" class="graph" transform="scale(1 1) rotate(0) translate(4 280)">
<title>dependencies</title>
<polygon fill="white" stroke="transparent" points="-4,4 -4,-280 4568,-280 4568,4 -4,4"/>
<text text-anchor="start" x="2261.01" y="-42.4" font-family="Times-12" font-weight="bold" font-size="14.00">Legend</text>
<polygon fill="#ffffb3" stroke="transparent" points="2048,-10 2048,-30 2068,-30 2068,-10 2048,-10"/>
<text text-anchor="start" x="2071.63" y="-15.4" font-family="Times-12" font-size="14.00"> &#160;Declarations</text>
<polygon fill="#8dd3c7" stroke="transparent" points="2161,-10 2161,-30 2181,-30 2181,-10 2161,-10"/>
<text text-anchor="start" x="2184.73" y="-15.4" font-family="Times-12" font-size="14.00"> &#160;Module</text>
<polygon fill="#80b1d3" stroke="transparent" points="2247,-10 2247,-30 2267,-30 2267,-10 2247,-10"/>
<text text-anchor="start" x="2270.78" y="-15.4" font-family="Times-12" font-size="14.00"> &#160;Bootstrap</text>
<polygon fill="#fdb462" stroke="transparent" points="2344,-10 2344,-30 2364,-30 2364,-10 2344,-10"/>
<text text-anchor="start" x="2367.67" y="-15.4" font-family="Times-12" font-size="14.00"> &#160;Providers</text>
<polygon fill="#fb8072" stroke="transparent" points="2440,-10 2440,-30 2460,-30 2460,-10 2440,-10"/>
<text text-anchor="start" x="2463.73" y="-15.4" font-family="Times-12" font-size="14.00"> &#160;Exports</text>
<g id="clust1" class="cluster">
<title>cluster_AppModule</title>
<polygon fill="none" stroke="black" stroke-dasharray="1,5" points="8,-70 8,-268 4556,-268 4556,-70 8,-70"/>
</g>
<g id="clust2" class="cluster">
<title>cluster_AppModule_declarations</title>
<polygon fill="none" stroke="black" points="1177,-78 1177,-130 4548,-130 4548,-78 1177,-78"/>
</g>
<g id="clust24" class="cluster">
<title>cluster_AppModule_imports</title>
<polygon fill="none" stroke="black" points="16,-78 16,-130 1169,-130 1169,-78 16,-78"/>
</g>
<g id="clust26" class="cluster">
<title>cluster_AppModule_bootstrap</title>
<polygon fill="none" stroke="black" points="2424,-208 2424,-260 2548,-260 2548,-208 2424,-208"/>
</g>
<!-- AddProductosAdminComponent -->
<g id="node1" class="node">
<title>AddProductosAdminComponent</title>
<polygon fill="#ffffb3" stroke="black" points="4540.32,-122 4339.68,-122 4339.68,-86 4540.32,-86 4540.32,-122"/>
<text text-anchor="middle" x="4440" y="-99.8" font-family="Times,serif" font-size="14.00">AddProductosAdminComponent</text>
</g>
<!-- AppModule -->
<g id="node22" class="node">
<title>AppModule</title>
<polygon fill="#8dd3c7" stroke="black" points="2527.66,-187 2524.66,-191 2503.66,-191 2500.66,-187 2444.34,-187 2444.34,-151 2527.66,-151 2527.66,-187"/>
<text text-anchor="middle" x="2486" y="-164.8" font-family="Times,serif" font-size="14.00">AppModule</text>
</g>
<!-- AddProductosAdminComponent&#45;&gt;AppModule -->
<g id="edge1" class="edge">
<title>AddProductosAdminComponent&#45;&gt;AppModule</title>
<path fill="none" stroke="black" d="M4440,-122.38C4440,-146.28 4440,-185 4440,-185 4440,-185 2537.72,-185 2537.72,-185"/>
<polygon fill="black" stroke="black" points="2537.72,-181.5 2527.72,-185 2537.72,-188.5 2537.72,-181.5"/>
</g>
<!-- AppComponent -->
<g id="node2" class="node">
<title>AppComponent</title>
<polygon fill="#ffffb3" stroke="black" points="4321.94,-122 4216.06,-122 4216.06,-86 4321.94,-86 4321.94,-122"/>
<text text-anchor="middle" x="4269" y="-99.8" font-family="Times,serif" font-size="14.00">AppComponent</text>
</g>
<!-- AppComponent&#45;&gt;AppModule -->
<g id="edge2" class="edge">
<title>AppComponent&#45;&gt;AppModule</title>
<path fill="none" stroke="black" d="M4269,-122.09C4269,-145.13 4269,-182 4269,-182 4269,-182 2537.88,-182 2537.88,-182"/>
<polygon fill="black" stroke="black" points="2537.88,-178.5 2527.88,-182 2537.88,-185.5 2537.88,-178.5"/>
</g>
<!-- CabeceraComponent -->
<g id="node3" class="node">
<title>CabeceraComponent</title>
<polygon fill="#ffffb3" stroke="black" points="4198.9,-122 4065.1,-122 4065.1,-86 4198.9,-86 4198.9,-122"/>
<text text-anchor="middle" x="4132" y="-99.8" font-family="Times,serif" font-size="14.00">CabeceraComponent</text>
</g>
<!-- CabeceraComponent&#45;&gt;AppModule -->
<g id="edge3" class="edge">
<title>CabeceraComponent&#45;&gt;AppModule</title>
<path fill="none" stroke="black" d="M4132,-122.16C4132,-144.35 4132,-179 4132,-179 4132,-179 2537.93,-179 2537.93,-179"/>
<polygon fill="black" stroke="black" points="2537.93,-175.5 2527.93,-179 2537.93,-182.5 2537.93,-175.5"/>
</g>
<!-- CajonComponent -->
<g id="node4" class="node">
<title>CajonComponent</title>
<polygon fill="#ffffb3" stroke="black" points="4047.27,-122 3932.73,-122 3932.73,-86 4047.27,-86 4047.27,-122"/>
<text text-anchor="middle" x="3990" y="-99.8" font-family="Times,serif" font-size="14.00">CajonComponent</text>
</g>
<!-- CajonComponent&#45;&gt;AppModule -->
<g id="edge4" class="edge">
<title>CajonComponent&#45;&gt;AppModule</title>
<path fill="none" stroke="black" d="M3990,-122.17C3990,-143.5 3990,-176 3990,-176 3990,-176 2537.8,-176 2537.8,-176"/>
<polygon fill="black" stroke="black" points="2537.8,-172.5 2527.8,-176 2537.8,-179.5 2537.8,-172.5"/>
</g>
<!-- CajonItemAddComponent -->
<g id="node5" class="node">
<title>CajonItemAddComponent</title>
<polygon fill="#ffffb3" stroke="black" points="3914.04,-122 3749.96,-122 3749.96,-86 3914.04,-86 3914.04,-122"/>
<text text-anchor="middle" x="3832" y="-99.8" font-family="Times,serif" font-size="14.00">CajonItemAddComponent</text>
</g>
<!-- CajonItemAddComponent&#45;&gt;AppModule -->
<g id="edge5" class="edge">
<title>CajonItemAddComponent&#45;&gt;AppModule</title>
<path fill="none" stroke="black" d="M3832,-122.03C3832,-142.77 3832,-174 3832,-174 3832,-174 2537.76,-174 2537.76,-174"/>
<polygon fill="black" stroke="black" points="2537.76,-170.5 2527.76,-174 2537.76,-177.5 2537.76,-170.5"/>
</g>
<!-- CajonItemComponent -->
<g id="node6" class="node">
<title>CajonItemComponent</title>
<polygon fill="#ffffb3" stroke="black" points="3732.43,-122 3591.57,-122 3591.57,-86 3732.43,-86 3732.43,-122"/>
<text text-anchor="middle" x="3662" y="-99.8" font-family="Times,serif" font-size="14.00">CajonItemComponent</text>
</g>
<!-- CajonItemComponent&#45;&gt;AppModule -->
<g id="edge6" class="edge">
<title>CajonItemComponent&#45;&gt;AppModule</title>
<path fill="none" stroke="black" d="M3662,-122.31C3662,-142.15 3662,-171 3662,-171 3662,-171 2537.85,-171 2537.85,-171"/>
<polygon fill="black" stroke="black" points="2537.85,-167.5 2527.85,-171 2537.85,-174.5 2537.85,-167.5"/>
</g>
<!-- CarouselComponent -->
<g id="node7" class="node">
<title>CarouselComponent</title>
<polygon fill="#ffffb3" stroke="black" points="3573.59,-122 3442.41,-122 3442.41,-86 3573.59,-86 3573.59,-122"/>
<text text-anchor="middle" x="3508" y="-99.8" font-family="Times,serif" font-size="14.00">CarouselComponent</text>
</g>
<!-- CarouselComponent&#45;&gt;AppModule -->
<g id="edge7" class="edge">
<title>CarouselComponent&#45;&gt;AppModule</title>
<path fill="none" stroke="black" d="M3508,-122.17C3508,-141.09 3508,-168 3508,-168 3508,-168 2537.97,-168 2537.97,-168"/>
<polygon fill="black" stroke="black" points="2537.97,-164.5 2527.97,-168 2537.97,-171.5 2537.97,-164.5"/>
</g>
<!-- FamiliaComponent -->
<g id="node8" class="node">
<title>FamiliaComponent</title>
<polygon fill="#ffffb3" stroke="black" points="3424.11,-122 3299.89,-122 3299.89,-86 3424.11,-86 3424.11,-122"/>
<text text-anchor="middle" x="3362" y="-99.8" font-family="Times,serif" font-size="14.00">FamiliaComponent</text>
</g>
<!-- FamiliaComponent&#45;&gt;AppModule -->
<g id="edge8" class="edge">
<title>FamiliaComponent&#45;&gt;AppModule</title>
<path fill="none" stroke="black" d="M3362,-122.3C3362,-140.27 3362,-165 3362,-165 3362,-165 2537.66,-165 2537.66,-165"/>
<polygon fill="black" stroke="black" points="2537.66,-161.5 2527.66,-165 2537.66,-168.5 2537.66,-161.5"/>
</g>
<!-- InicioSesionComponent -->
<g id="node9" class="node">
<title>InicioSesionComponent</title>
<polygon fill="#ffffb3" stroke="black" points="3281.82,-122 3130.18,-122 3130.18,-86 3281.82,-86 3281.82,-122"/>
<text text-anchor="middle" x="3206" y="-99.8" font-family="Times,serif" font-size="14.00">InicioSesionComponent</text>
</g>
<!-- InicioSesionComponent&#45;&gt;AppModule -->
<g id="edge9" class="edge">
<title>InicioSesionComponent&#45;&gt;AppModule</title>
<path fill="none" stroke="black" d="M3206,-122.02C3206,-139.37 3206,-163 3206,-163 3206,-163 2537.82,-163 2537.82,-163"/>
<polygon fill="black" stroke="black" points="2537.82,-159.5 2527.82,-163 2537.82,-166.5 2537.82,-159.5"/>
</g>
<!-- LandingPageComponent -->
<g id="node10" class="node">
<title>LandingPageComponent</title>
<polygon fill="#ffffb3" stroke="black" points="3112.7,-122 2957.3,-122 2957.3,-86 3112.7,-86 3112.7,-122"/>
<text text-anchor="middle" x="3035" y="-99.8" font-family="Times,serif" font-size="14.00">LandingPageComponent</text>
</g>
<!-- LandingPageComponent&#45;&gt;AppModule -->
<g id="edge10" class="edge">
<title>LandingPageComponent&#45;&gt;AppModule</title>
<path fill="none" stroke="black" d="M3035,-122.03C3035,-138.4 3035,-160 3035,-160 3035,-160 2537.71,-160 2537.71,-160"/>
<polygon fill="black" stroke="black" points="2537.71,-156.5 2527.71,-160 2537.71,-163.5 2537.71,-156.5"/>
</g>
<!-- NeveraComponent -->
<g id="node11" class="node">
<title>NeveraComponent</title>
<polygon fill="#ffffb3" stroke="black" points="2939.74,-122 2818.26,-122 2818.26,-86 2939.74,-86 2939.74,-122"/>
<text text-anchor="middle" x="2879" y="-99.8" font-family="Times,serif" font-size="14.00">NeveraComponent</text>
</g>
<!-- NeveraComponent&#45;&gt;AppModule -->
<g id="edge11" class="edge">
<title>NeveraComponent&#45;&gt;AppModule</title>
<path fill="none" stroke="black" d="M2879,-122.24C2879,-137.57 2879,-157 2879,-157 2879,-157 2537.69,-157 2537.69,-157"/>
<polygon fill="black" stroke="black" points="2537.69,-153.5 2527.69,-157 2537.69,-160.5 2537.69,-153.5"/>
</g>
<!-- NeveraItemComponent -->
<g id="node12" class="node">
<title>NeveraItemComponent</title>
<polygon fill="#ffffb3" stroke="black" points="2799.9,-122 2652.1,-122 2652.1,-86 2799.9,-86 2799.9,-122"/>
<text text-anchor="middle" x="2726" y="-99.8" font-family="Times,serif" font-size="14.00">NeveraItemComponent</text>
</g>
<!-- NeveraItemComponent&#45;&gt;AppModule -->
<g id="edge12" class="edge">
<title>NeveraItemComponent&#45;&gt;AppModule</title>
<path fill="none" stroke="black" d="M2726,-122.05C2726,-136.37 2726,-154 2726,-154 2726,-154 2537.8,-154 2537.8,-154"/>
<polygon fill="black" stroke="black" points="2537.8,-150.5 2527.8,-154 2537.8,-157.5 2537.8,-150.5"/>
</g>
<!-- NeverasComponent -->
<g id="node13" class="node">
<title>NeverasComponent</title>
<polygon fill="#ffffb3" stroke="black" points="2634.69,-122 2507.31,-122 2507.31,-86 2634.69,-86 2634.69,-122"/>
<text text-anchor="middle" x="2571" y="-99.8" font-family="Times,serif" font-size="14.00">NeverasComponent</text>
</g>
<!-- NeverasComponent&#45;&gt;AppModule -->
<g id="edge13" class="edge">
<title>NeverasComponent&#45;&gt;AppModule</title>
<path fill="none" stroke="black" d="M2517.62,-122.11C2517.62,-122.11 2517.62,-140.99 2517.62,-140.99"/>
<polygon fill="black" stroke="black" points="2514.12,-140.99 2517.62,-150.99 2521.12,-140.99 2514.12,-140.99"/>
</g>
<!-- NumerosdecimalesDirective -->
<g id="node14" class="node">
<title>NumerosdecimalesDirective</title>
<polygon fill="#ffffb3" stroke="black" points="2489.88,-122 2314.12,-122 2314.12,-86 2489.88,-86 2489.88,-122"/>
<text text-anchor="middle" x="2402" y="-99.8" font-family="Times,serif" font-size="14.00">NumerosdecimalesDirective</text>
</g>
<!-- NumerosdecimalesDirective&#45;&gt;AppModule -->
<g id="edge14" class="edge">
<title>NumerosdecimalesDirective&#45;&gt;AppModule</title>
<path fill="none" stroke="black" d="M2466.93,-122.11C2466.93,-122.11 2466.93,-140.99 2466.93,-140.99"/>
<polygon fill="black" stroke="black" points="2463.43,-140.99 2466.93,-150.99 2470.43,-140.99 2463.43,-140.99"/>
</g>
<!-- PieComponent -->
<g id="node15" class="node">
<title>PieComponent</title>
<polygon fill="#ffffb3" stroke="black" points="2296.72,-122 2197.28,-122 2197.28,-86 2296.72,-86 2296.72,-122"/>
<text text-anchor="middle" x="2247" y="-99.8" font-family="Times,serif" font-size="14.00">PieComponent</text>
</g>
<!-- PieComponent&#45;&gt;AppModule -->
<g id="edge15" class="edge">
<title>PieComponent&#45;&gt;AppModule</title>
<path fill="none" stroke="black" d="M2247,-122.05C2247,-136.37 2247,-154 2247,-154 2247,-154 2434.1,-154 2434.1,-154"/>
<polygon fill="black" stroke="black" points="2434.1,-157.5 2444.1,-154 2434.1,-150.5 2434.1,-157.5"/>
</g>
<!-- ProductoCajonComponent -->
<g id="node16" class="node">
<title>ProductoCajonComponent</title>
<polygon fill="#ffffb3" stroke="black" points="2179.82,-122 2014.18,-122 2014.18,-86 2179.82,-86 2179.82,-122"/>
<text text-anchor="middle" x="2097" y="-99.8" font-family="Times,serif" font-size="14.00">ProductoCajonComponent</text>
</g>
<!-- ProductoCajonComponent&#45;&gt;AppModule -->
<g id="edge16" class="edge">
<title>ProductoCajonComponent&#45;&gt;AppModule</title>
<path fill="none" stroke="black" d="M2097,-122.24C2097,-137.57 2097,-157 2097,-157 2097,-157 2434,-157 2434,-157"/>
<polygon fill="black" stroke="black" points="2434,-160.5 2444,-157 2434,-153.5 2434,-160.5"/>
</g>
<!-- ProductoItemComponent -->
<g id="node17" class="node">
<title>ProductoItemComponent</title>
<polygon fill="#ffffb3" stroke="black" points="1996.54,-122 1839.46,-122 1839.46,-86 1996.54,-86 1996.54,-122"/>
<text text-anchor="middle" x="1918" y="-99.8" font-family="Times,serif" font-size="14.00">ProductoItemComponent</text>
</g>
<!-- ProductoItemComponent&#45;&gt;AppModule -->
<g id="edge17" class="edge">
<title>ProductoItemComponent&#45;&gt;AppModule</title>
<path fill="none" stroke="black" d="M1918,-122.03C1918,-138.4 1918,-160 1918,-160 1918,-160 2434.23,-160 2434.23,-160"/>
<polygon fill="black" stroke="black" points="2434.23,-163.5 2444.23,-160 2434.23,-156.5 2434.23,-163.5"/>
</g>
<!-- ProductosFamComponent -->
<g id="node18" class="node">
<title>ProductosFamComponent</title>
<polygon fill="#ffffb3" stroke="black" points="1821.21,-122 1658.79,-122 1658.79,-86 1821.21,-86 1821.21,-122"/>
<text text-anchor="middle" x="1740" y="-99.8" font-family="Times,serif" font-size="14.00">ProductosFamComponent</text>
</g>
<!-- ProductosFamComponent&#45;&gt;AppModule -->
<g id="edge18" class="edge">
<title>ProductosFamComponent&#45;&gt;AppModule</title>
<path fill="none" stroke="black" d="M1740,-122.02C1740,-139.37 1740,-163 1740,-163 1740,-163 2434.29,-163 2434.29,-163"/>
<polygon fill="black" stroke="black" points="2434.29,-166.5 2444.29,-163 2434.29,-159.5 2434.29,-166.5"/>
</g>
<!-- PruebasComponent -->
<g id="node19" class="node">
<title>PruebasComponent</title>
<polygon fill="#ffffb3" stroke="black" points="1640.65,-122 1515.35,-122 1515.35,-86 1640.65,-86 1640.65,-122"/>
<text text-anchor="middle" x="1578" y="-99.8" font-family="Times,serif" font-size="14.00">PruebasComponent</text>
</g>
<!-- PruebasComponent&#45;&gt;AppModule -->
<g id="edge19" class="edge">
<title>PruebasComponent&#45;&gt;AppModule</title>
<path fill="none" stroke="black" d="M1578,-122.3C1578,-140.27 1578,-165 1578,-165 1578,-165 2434.33,-165 2434.33,-165"/>
<polygon fill="black" stroke="black" points="2434.33,-168.5 2444.33,-165 2434.33,-161.5 2434.33,-168.5"/>
</g>
<!-- RegistroComponent -->
<g id="node20" class="node">
<title>RegistroComponent</title>
<polygon fill="#ffffb3" stroke="black" points="1497.27,-122 1368.73,-122 1368.73,-86 1497.27,-86 1497.27,-122"/>
<text text-anchor="middle" x="1433" y="-99.8" font-family="Times,serif" font-size="14.00">RegistroComponent</text>
</g>
<!-- RegistroComponent&#45;&gt;AppModule -->
<g id="edge20" class="edge">
<title>RegistroComponent&#45;&gt;AppModule</title>
<path fill="none" stroke="black" d="M1433,-122.17C1433,-141.09 1433,-168 1433,-168 1433,-168 2434.07,-168 2434.07,-168"/>
<polygon fill="black" stroke="black" points="2434.07,-171.5 2444.07,-168 2434.07,-164.5 2434.07,-171.5"/>
</g>
<!-- SesionRegistroComponent -->
<g id="node21" class="node">
<title>SesionRegistroComponent</title>
<polygon fill="#ffffb3" stroke="black" points="1351.1,-122 1184.9,-122 1184.9,-86 1351.1,-86 1351.1,-122"/>
<text text-anchor="middle" x="1268" y="-99.8" font-family="Times,serif" font-size="14.00">SesionRegistroComponent</text>
</g>
<!-- SesionRegistroComponent&#45;&gt;AppModule -->
<g id="edge21" class="edge">
<title>SesionRegistroComponent&#45;&gt;AppModule</title>
<path fill="none" stroke="black" d="M1268,-122.31C1268,-142.15 1268,-171 1268,-171 1268,-171 2434.07,-171 2434.07,-171"/>
<polygon fill="black" stroke="black" points="2434.07,-174.5 2444.07,-171 2434.07,-167.5 2434.07,-174.5"/>
</g>
<!-- AppComponent  -->
<g id="node28" class="node">
<title>AppComponent </title>
<polygon fill="#80b1d3" stroke="black" points="2540.44,-252 2431.56,-252 2431.56,-216 2540.44,-216 2540.44,-252"/>
<text text-anchor="middle" x="2486" y="-229.8" font-family="Times,serif" font-size="14.00">AppComponent </text>
</g>
<!-- AppModule&#45;&gt;AppComponent  -->
<g id="edge27" class="edge">
<title>AppModule&#45;&gt;AppComponent </title>
<path fill="none" stroke="black" stroke-dasharray="1,5" d="M2486,-187.11C2486,-187.11 2486,-205.99 2486,-205.99"/>
<polygon fill="black" stroke="black" points="2482.5,-205.99 2486,-215.99 2489.5,-205.99 2482.5,-205.99"/>
</g>
<!-- AppRoutingModule -->
<g id="node23" class="node">
<title>AppRoutingModule</title>
<polygon fill="#8dd3c7" stroke="black" points="1161.27,-122 1158.27,-126 1137.27,-126 1134.27,-122 1032.73,-122 1032.73,-86 1161.27,-86 1161.27,-122"/>
<text text-anchor="middle" x="1097" y="-99.8" font-family="Times,serif" font-size="14.00">AppRoutingModule</text>
</g>
<!-- AppRoutingModule&#45;&gt;AppModule -->
<g id="edge22" class="edge">
<title>AppRoutingModule&#45;&gt;AppModule</title>
<path fill="none" stroke="black" d="M1097,-122.03C1097,-142.77 1097,-174 1097,-174 1097,-174 2434.05,-174 2434.05,-174"/>
<polygon fill="black" stroke="black" points="2434.05,-177.5 2444.05,-174 2434.05,-170.5 2434.05,-177.5"/>
</g>
<!-- provideAuth(() =&gt; getAuth()) -->
<g id="node24" class="node">
<title>provideAuth(() =&gt; getAuth())</title>
<polygon fill="#8dd3c7" stroke="black" points="1014.12,-122 1011.12,-126 990.12,-126 987.12,-122 831.88,-122 831.88,-86 1014.12,-86 1014.12,-122"/>
<text text-anchor="middle" x="923" y="-99.8" font-family="Times,serif" font-size="14.00">provideAuth(() =&gt; getAuth())</text>
</g>
<!-- provideAuth(() =&gt; getAuth())&#45;&gt;AppModule -->
<g id="edge23" class="edge">
<title>provideAuth(() =&gt; getAuth())&#45;&gt;AppModule</title>
<path fill="none" stroke="black" d="M923,-122.17C923,-143.5 923,-176 923,-176 923,-176 2434.19,-176 2434.19,-176"/>
<polygon fill="black" stroke="black" points="2434.19,-179.5 2444.19,-176 2434.19,-172.5 2434.19,-179.5"/>
</g>
<!-- provideFirebaseApp(() =&gt; initializeApp(environment -->
<g id="node25" class="node">
<title>provideFirebaseApp(() =&gt; initializeApp(environment</title>
<polygon fill="#8dd3c7" stroke="black" points="813.58,-122 810.58,-126 789.58,-126 786.58,-122 498.42,-122 498.42,-86 813.58,-86 813.58,-122"/>
<text text-anchor="middle" x="656" y="-99.8" font-family="Times,serif" font-size="14.00">provideFirebaseApp(() =&gt; initializeApp(environment</text>
</g>
<!-- provideFirebaseApp(() =&gt; initializeApp(environment&#45;&gt;AppModule -->
<g id="edge24" class="edge">
<title>provideFirebaseApp(() =&gt; initializeApp(environment&#45;&gt;AppModule</title>
<path fill="none" stroke="black" d="M656,-122.16C656,-144.35 656,-179 656,-179 656,-179 2434.34,-179 2434.34,-179"/>
<polygon fill="black" stroke="black" points="2434.34,-182.5 2444.34,-179 2434.34,-175.5 2434.34,-182.5"/>
</g>
<!-- provideFirestore(() =&gt; getFirestore()) -->
<g id="node26" class="node">
<title>provideFirestore(() =&gt; getFirestore())</title>
<polygon fill="#8dd3c7" stroke="black" points="480.14,-122 477.14,-126 456.14,-126 453.14,-122 253.86,-122 253.86,-86 480.14,-86 480.14,-122"/>
<text text-anchor="middle" x="367" y="-99.8" font-family="Times,serif" font-size="14.00">provideFirestore(() =&gt; getFirestore())</text>
</g>
<!-- provideFirestore(() =&gt; getFirestore())&#45;&gt;AppModule -->
<g id="edge25" class="edge">
<title>provideFirestore(() =&gt; getFirestore())&#45;&gt;AppModule</title>
<path fill="none" stroke="black" d="M367,-122.09C367,-145.13 367,-182 367,-182 367,-182 2434.15,-182 2434.15,-182"/>
<polygon fill="black" stroke="black" points="2434.15,-185.5 2444.15,-182 2434.15,-178.5 2434.15,-185.5"/>
</g>
<!-- provideStorage(() =&gt; getStorage()) -->
<g id="node27" class="node">
<title>provideStorage(() =&gt; getStorage())</title>
<polygon fill="#8dd3c7" stroke="black" points="236.15,-122 233.15,-126 212.15,-126 209.15,-122 23.85,-122 23.85,-86 236.15,-86 236.15,-122"/>
<text text-anchor="middle" x="130" y="-99.8" font-family="Times,serif" font-size="14.00">provideStorage(() =&gt; getStorage())</text>
</g>
<!-- provideStorage(() =&gt; getStorage())&#45;&gt;AppModule -->
<g id="edge26" class="edge">
<title>provideStorage(() =&gt; getStorage())&#45;&gt;AppModule</title>
<path fill="none" stroke="black" d="M130,-122.38C130,-146.28 130,-185 130,-185 130,-185 2434.11,-185 2434.11,-185"/>
<polygon fill="black" stroke="black" points="2434.11,-188.5 2444.11,-185 2434.11,-181.5 2434.11,-188.5"/>
</g>
</g>
</svg>
